# xmcd
#
# Track frame offsets:
#	182
#	12190
#	27422
#	53802
#	80202
#	106872
#	127447
#
# Disc length: 2032 seconds
#
# Revision: 3
# Processed by: cddbd v1.5.2PL0 Copyright (c) Steve Scherf et al.
# Submitted via: EZCDAudioConverter 1.3.4.1
#
DISCID=5c07ee07
DTITLE=Yello - How How
DYEAR=1994
DGENRE=
TTITLE0=How How [Single]
TTITLE1=How How [Fluke Radio Edit]
TTITLE2=How How [Dee Doo Dee Mix]
TTITLE3=How How [Papa-Who-Ma Mix]
TTITLE4=How How [The PreMix]
TTITLE5=How How [In Silence Mix]
TTITLE6=Breaks, Beats, and Loops - How How Samples
EXTD=
EXTT0=
EXTT1=
EXTT2=
EXTT3=
EXTT4=
EXTT5=
EXTT6=
PLAYORDER=
